<svg xmlns="http://www.w3.org/2000/svg" viewBox="0 0 88.06 49.45"><defs><style>.cls-1{fill:#ffe22b;}</style></defs><g id="Capa_2" data-name="Capa 2"><g id="Capa_1-2" data-name="Capa 1"><path class="cls-1" d="M2.18,20.3c0-10.37,6-18.12,14-18.12s14,7.75,14,18.12c0,4.53-1.42,10-4.42,17.09-.06,0-.06-.06-.11-.06-1.91-1.42-3.49-2.62-3.66-6.27a15.44,15.44,0,0,0,5-11.08A11.5,11.5,0,0,0,20.58,9.55l-1-.49-.49,1c-1.63,3.61-6.44,6.44-12.5,7.43l-.81.16-.11.82c-.06.6-.11,1.09-.11,1.53a15.53,15.53,0,0,0,5,11.08,6.72,6.72,0,0,1-3.27,6c-3-6.88-5.08-12.17-5.08-16.76M7.75,20v-.5c5.84-1.14,10.59-3.93,12.77-7.47a9.43,9.43,0,0,1,4.15,8c0,6.22-4.64,11.24-8.46,11.24S7.75,26.2,7.75,20M20.85,38.7a6.62,6.62,0,0,1-4.53,1.8,6.39,6.39,0,0,1-4.75-2,3.11,3.11,0,0,1-.76-1.69,8.08,8.08,0,0,0,1.74-4.26,7.67,7.67,0,0,0,7.32,0A8.21,8.21,0,0,0,21.78,37a3,3,0,0,1-.93,1.7M1.09,48.19a1,1,0,0,0,1,1.15h.05a1.12,1.12,0,0,0,1.09-1c.44-5.95,2.62-7.58,4.92-9.33.27-.22.54-.38.82-.6,1,2.46,3.93,4.26,7.31,4.26a8,8,0,0,0,7.15-3.88c.05,0,.05-.16.11-.22.11.11.22.17.33.28s.21.16.32.27c2.3,1.75,4.53,3.33,4.92,9.33a1.12,1.12,0,0,0,1.09,1h.05a1.14,1.14,0,0,0,1-1.15c-.38-5.18-2.13-7.75-3.93-9.38,3.33-7.65,4.86-13.54,4.86-18.51C32.31,8.68,25.38,0,16.16,0S0,8.68,0,20.3c0,4.92,1.47,10.26,5.08,18.45-1.86,1.69-3.61,4.2-4,9.44"/><path class="cls-1" d="M43.61,49.45a1,1,0,0,1-1-1V46.35c0-6,4.78-10.34,11.37-10.34h2.55l2.75-4.1A1,1,0,1,1,61,33.05L57.9,37.62a1,1,0,0,1-.86.46h-3.1c-5.47,0-9.3,3.4-9.3,8.27v2.07a1,1,0,0,1-1,1"/><path class="cls-1" d="M87,49.45a1,1,0,0,1-1-1V46.35c0-4.87-3.76-8.27-9.14-8.27h-3.1a1,1,0,0,1-.85-.45l-3.35-4.88a1,1,0,0,1,.26-1.43,1,1,0,0,1,1.44.27l3,4.43h2.55c6.6,0,11.21,4.25,11.21,10.34v2.06a1,1,0,0,1-1,1"/><path class="cls-1" d="M65.31,43.25a1,1,0,0,1-.54-.16L56.5,37.92a1,1,0,1,1,1.09-1.75L65.32,41l7.89-4.83a1,1,0,0,1,1.42.34,1,1,0,0,1-.34,1.42L65.85,43.1a1,1,0,0,1-.54.15"/><path class="cls-1" d="M52.68,14.76a23.5,23.5,0,0,0,2.62.17A20,20,0,0,0,69.53,9a9.3,9.3,0,0,0,8.33,4.5,16.37,16.37,0,0,1-.61,5.88,21.38,21.38,0,0,1-6.38,10.8,8,8,0,0,1-11.11,0,21.46,21.46,0,0,1-6.39-10.8,17.31,17.31,0,0,1-.69-4.66M65.16,2h.31a12.67,12.67,0,0,1,11.81,8.53c.11.32.16.65.25,1-3,0-5.17-1.47-6.93-4.6a1,1,0,0,0-.75-.51,1,1,0,0,0-.85.31c-4.56,4.8-9.88,6.75-16.17,6a12.36,12.36,0,0,1,.52-2.18A12.66,12.66,0,0,1,65.16,2m9,27.73A24.61,24.61,0,0,0,79.18,20a16.51,16.51,0,0,0,0-10A14.69,14.69,0,0,0,65.47,0h-.31A14.69,14.69,0,0,0,51.45,9.92a16.58,16.58,0,0,0,0,10,24.76,24.76,0,0,0,5.07,9.8l1.57,1.6c.13.12.24.26.37.38a9.84,9.84,0,0,0,13.73,0c.14-.12.25-.28.39-.4Z"/></g></g></svg>