<svg xmlns="http://www.w3.org/2000/svg" viewBox="0 0 83.63 69.64"><defs><style>.cls-1{fill:#ffe22b;}</style></defs><g id="Capa_2" data-name="Capa 2"><g id="Capa_1-2" data-name="Capa 1"><path class="cls-1" d="M40.44,34.29c-1.56-1.55-3.25-2.49-4.52-2.49a2.06,2.06,0,0,0-1.49.58,2,2,0,0,0-.58,1.49c0,1.51,1.29,3.34,2.49,4.54C37.9,40,39.6,40.9,40.88,40.9a2,2,0,0,0,1.49-.58C43.76,38.9,42.34,36.21,40.44,34.29ZM38,36.73a7.2,7.2,0,0,1-1.71-2.47A7,7,0,0,1,38.77,36a7.35,7.35,0,0,1,1.71,2.47A6.75,6.75,0,0,1,38,36.73Z"/><path class="cls-1" d="M42.44,19l3.35,1,1,3.37a1.18,1.18,0,0,0,1.13.83h0a1.19,1.19,0,0,0,1.14-.85l1-3.35,3.35-1a1.18,1.18,0,0,0,.83-1.13,1.19,1.19,0,0,0-.83-1.14l-3.35-1-1-3.35A1.19,1.19,0,0,0,48,11.5h0a1.18,1.18,0,0,0-1.13.83l-1,3.35-3.35,1a1.19,1.19,0,0,0-.83,1.14A1.18,1.18,0,0,0,42.44,19Zm4.66-1.22a1.16,1.16,0,0,0,.78-.77l.08-.28.09.28a1.12,1.12,0,0,0,.77.77l.28.09-.28.08a1.16,1.16,0,0,0-.77.78L48,19l-.08-.27a1.19,1.19,0,0,0-.78-.78l-.27-.08Z"/><path class="cls-1" d="M82.46,67.25H70.92L63,59.34l2.65-2.66a1.16,1.16,0,0,0,.26-1.3.89.89,0,0,0-.09-.16h0s0-.05,0-.09h0s0,0-.07-.07L37.55,24.86a13,13,0,0,0-3.19-11s0,0,0,0l-.45-.46c-.3-.3-.62-.6-1-.88a13.12,13.12,0,0,0-16.6,0,10,10,0,0,0-1,.88,13.35,13.35,0,0,0-1.68,2.05,15,15,0,0,0-.95,1.7,12.86,12.86,0,0,0-.83,2.4,13.13,13.13,0,0,0,3.46,12.4h0l0,0a13,13,0,0,0,9.24,3.81,14,14,0,0,0,2.25-.19L57.06,63.71a1.14,1.14,0,0,0,.81.32,1.2,1.2,0,0,0,.84-.35L61.36,61l6.23,6.24H24.74a1.19,1.19,0,0,0,0,2.37h57.7a1.2,1.2,0,0,0,0-2.39ZM16,16.26c.22-.29.44-.58.69-.85s.26-.27.37-.41.53-.49.8-.71A10.75,10.75,0,0,1,32.23,15l.3.31,0,0a10.31,10.31,0,0,1,1.71,2.49L19.87,32.23l-.07,0L19.49,32,19.41,32a10.07,10.07,0,0,1-.88-.56,2,2,0,0,1-.19-.12l-.2-.15A1.57,1.57,0,0,1,18,31l-.18-.15-.22-.19-.16-.14c-.12-.1-.23-.22-.35-.34h0a10.76,10.76,0,0,1-1.37-13.51C15.78,16.55,15.89,16.39,16,16.26Zm6.35,16.83,12.78-12.8a10.68,10.68,0,0,1,0,4.4l-8.45,8.45a10.43,10.43,0,0,1-2.09.2A10.28,10.28,0,0,1,22.34,33.09ZM36.26,27l20,21.47-5.85,5.85L29,34.23Zm15.9,28.93,5.72-5.75,5.31,5.68-5.36,5.35Z"/><path class="cls-1" d="M8.86,4.28l2.86,5a1.18,1.18,0,0,0,1,.59,1.27,1.27,0,0,0,.6-.15,1.2,1.2,0,0,0,.44-1.63L9.48.61h0a.27.27,0,0,0-.06-.1s0,0,0,0,0,0,0-.05l0,0,0,0,0,0s0,0,0,0l0,0-.05,0L9,.14s0,0,0,0-.05,0-.07,0,0,0,0,0a.24.24,0,0,0-.12,0h0a.18.18,0,0,0-.1,0H8.28a.06.06,0,0,0,0,0H8.16l-.05,0s0,0-.06,0H8l0,0s0,0-.06,0h0l-.1.07,0,.05,0,0,0,.06,0,0-.05,0,0,0s0,0,0,.05,0,0,0,0l0,0s0,0,0,.05,0,0,0,.07,0,0,0,0a.25.25,0,0,0,0,.12h0L5,9.45a3.85,3.85,0,0,0-.8-.34A3.57,3.57,0,0,0,3.32,9a3.34,3.34,0,0,0-3.2,2.46,3.29,3.29,0,0,0,2.34,4.06,3.57,3.57,0,0,0,.86.12,3.34,3.34,0,0,0,3.2-2.45,2.91,2.91,0,0,0,.1-.77Zm-4.57,8.3a1,1,0,0,1-.92.7,1.09,1.09,0,0,1-.25,0,.93.93,0,0,1-.66-1.17,1,1,0,0,1,.91-.69,1.57,1.57,0,0,1,.24,0A1,1,0,0,1,4.29,12.58Z"/><path class="cls-1" d="M27,48.47a1.19,1.19,0,0,0,0-2.27l-3.35-1-1-3.36A1.18,1.18,0,0,0,21.51,41h0a1.19,1.19,0,0,0-1.14.83l-1,3.36L16,46.2a1.19,1.19,0,0,0,0,2.27l3.35,1,1,3.35a1.21,1.21,0,0,0,1.14.85h0a1.18,1.18,0,0,0,1.13-.83l1-3.37Zm-4.64-1a1.15,1.15,0,0,0-.78.78l-.08.27-.09-.27a1.15,1.15,0,0,0-.78-.78l-.27-.09.27-.08a1.17,1.17,0,0,0,.78-.78l.09-.27.08.27a1.17,1.17,0,0,0,.78.78l.27.08Z"/></g></g></svg>