<svg xmlns="http://www.w3.org/2000/svg" viewBox="0 0 66 66"><defs><style>.cls-1{fill:#00964b;}</style></defs><g id="Capa_2" data-name="Capa 2"><g id="Capa_1-2" data-name="Capa 1"><path class="cls-1" d="M47,0H65a1,1,0,0,1,1,1V19a1,1,0,0,1-1,1H47a1,1,0,0,1-1-1V1A1,1,0,0,1,47,0Zm1,2V18H64V2ZM12.85,46.48l11,18A1,1,0,0,1,23,66H1a1,1,0,0,1-.85-1.52l11-18A1,1,0,0,1,12.85,46.48ZM12,48.92,2.78,64H21.22ZM13,39a1,1,0,0,1-2,0V22a12,12,0,0,1,24,0V44a10,10,0,0,0,20,0V27a1,1,0,0,1,2,0V44a12,12,0,0,1-24,0V22a10,10,0,0,0-20,0Z"/></g></g></svg>