<svg xmlns="http://www.w3.org/2000/svg" viewBox="0 0 205.4 205.4"><defs><style>.cls-1{fill:#f05530;}.cls-2{fill:#fff;}</style></defs><g id="Capa_2" data-name="Capa 2"><g id="Elementos"><circle class="cls-1" cx="102.7" cy="102.7" r="102.7"/><path class="cls-2" d="M38.54,66a10.25,10.25,0,0,1-4.26-.81,6.23,6.23,0,0,1-2.77-2.39,8,8,0,0,1-1.09-3.91c0-.72,0-1.49,0-2.31s0-1.61,0-2.37a7.86,7.86,0,0,1,1.11-3.88,6.2,6.2,0,0,1,2.78-2.42,10.17,10.17,0,0,1,4.23-.81,11.26,11.26,0,0,1,3.2.43,8,8,0,0,1,2.57,1.26,5.77,5.77,0,0,1,2.37,4.64.45.45,0,0,1-.15.39.6.6,0,0,1-.41.16H42.58a.84.84,0,0,1-.53-.15,1.11,1.11,0,0,1-.31-.54,3,3,0,0,0-1.2-1.9,3.8,3.8,0,0,0-2-.51,3.18,3.18,0,0,0-2.28.8,3.73,3.73,0,0,0-.92,2.67q-.09,2.15,0,4.41a3.73,3.73,0,0,0,.92,2.66,3.14,3.14,0,0,0,2.28.8,3.81,3.81,0,0,0,2.05-.52,3,3,0,0,0,1.18-1.89.91.91,0,0,1,.3-.54.87.87,0,0,1,.54-.15h3.54a.6.6,0,0,1,.41.16.46.46,0,0,1,.15.4A5.78,5.78,0,0,1,46,62.31a5.87,5.87,0,0,1-1.72,2,8,8,0,0,1-2.57,1.26A11.26,11.26,0,0,1,38.54,66Z"/><path class="cls-2" d="M56.94,66a10.42,10.42,0,0,1-4.2-.78A6.11,6.11,0,0,1,50,62.84a8,8,0,0,1-1.1-4c0-.75,0-1.51,0-2.27s0-1.52,0-2.27a8.1,8.1,0,0,1,1.11-4,6.23,6.23,0,0,1,2.81-2.43,11.14,11.14,0,0,1,8.34,0,6.34,6.34,0,0,1,2.81,2.43,7.79,7.79,0,0,1,1.1,4c0,.75,0,1.51,0,2.27s0,1.52,0,2.27a7.8,7.8,0,0,1-1.09,4,6.22,6.22,0,0,1-2.8,2.38A10.42,10.42,0,0,1,56.94,66Zm0-3.78a3.14,3.14,0,0,0,2.27-.84,3.72,3.72,0,0,0,.94-2.68c0-.77.05-1.49.05-2.18s0-1.39-.05-2.12a4.89,4.89,0,0,0-.46-2,2.57,2.57,0,0,0-1.12-1.14,3.41,3.41,0,0,0-1.63-.37,3.37,3.37,0,0,0-1.6.37,2.65,2.65,0,0,0-1.13,1.14,4.58,4.58,0,0,0-.47,2c0,.73,0,1.44,0,2.12s0,1.41,0,2.18a3.77,3.77,0,0,0,1,2.68A3.1,3.1,0,0,0,56.94,62.22Z"/><path class="cls-2" d="M68.79,65.74a.59.59,0,0,1-.48-.2.65.65,0,0,1-.18-.46V48a.66.66,0,0,1,.18-.48.65.65,0,0,1,.48-.18h2.78a.88.88,0,0,1,.64.2,1.27,1.27,0,0,1,.25.3l6.41,10.08V48a.66.66,0,0,1,.18-.48.64.64,0,0,1,.47-.18h3.16a.64.64,0,0,1,.47.18.66.66,0,0,1,.18.48v17a.68.68,0,0,1-.18.48.59.59,0,0,1-.47.2H79.87a.82.82,0,0,1-.62-.21,2.69,2.69,0,0,1-.25-.29l-6.41-9.71v9.55a.65.65,0,0,1-.18.46.59.59,0,0,1-.47.2Z"/><path class="cls-2" d="M94.54,66a10.23,10.23,0,0,1-4.25-.81,6.23,6.23,0,0,1-2.77-2.39,7.89,7.89,0,0,1-1.09-3.91q0-1.08,0-2.31c0-.83,0-1.61,0-2.37a8,8,0,0,1,1.1-3.88,6.27,6.27,0,0,1,2.79-2.42,10.15,10.15,0,0,1,4.22-.81,11.28,11.28,0,0,1,3.21.43,8,8,0,0,1,2.57,1.26,5.87,5.87,0,0,1,1.72,2,5.72,5.72,0,0,1,.64,2.64.45.45,0,0,1-.14.39.6.6,0,0,1-.41.16H98.59a.84.84,0,0,1-.53-.15,1.11,1.11,0,0,1-.31-.54,3.06,3.06,0,0,0-1.2-1.9,3.8,3.8,0,0,0-2-.51,3.21,3.21,0,0,0-2.29.8,3.83,3.83,0,0,0-.92,2.67q-.07,2.15,0,4.41a3.82,3.82,0,0,0,.92,2.66,3.17,3.17,0,0,0,2.29.8,3.81,3.81,0,0,0,2-.52,3,3,0,0,0,1.18-1.89.91.91,0,0,1,.3-.54.87.87,0,0,1,.54-.15h3.54a.6.6,0,0,1,.41.16.46.46,0,0,1,.14.4,5.65,5.65,0,0,1-.64,2.63,5.87,5.87,0,0,1-1.72,2,8,8,0,0,1-2.57,1.26A11.28,11.28,0,0,1,94.54,66Z"/><path class="cls-2" d="M113.16,66a10.26,10.26,0,0,1-4.16-.77,5.89,5.89,0,0,1-2.75-2.39,8,8,0,0,1-1-4.11V48a.63.63,0,0,1,.19-.48.64.64,0,0,1,.47-.18h3.39a.68.68,0,0,1,.48.18.64.64,0,0,1,.2.48V58.7a3.57,3.57,0,0,0,.81,2.56,3.52,3.52,0,0,0,4.61,0,3.53,3.53,0,0,0,.83-2.56V48a.64.64,0,0,1,.2-.48.65.65,0,0,1,.46-.18h3.41a.67.67,0,0,1,.46.18.64.64,0,0,1,.2.48V58.73a7.86,7.86,0,0,1-1,4.11,5.79,5.79,0,0,1-2.73,2.39A10.07,10.07,0,0,1,113.16,66Z"/><path class="cls-2" d="M125.13,65.74a.59.59,0,0,1-.47-.2.65.65,0,0,1-.18-.46V48a.66.66,0,0,1,.18-.48.64.64,0,0,1,.47-.18h7.15a8.31,8.31,0,0,1,5.35,1.56,6,6,0,0,1,1.05,7.58,5.54,5.54,0,0,1-2.36,1.94l3.6,6.46a.71.71,0,0,1,.08.29.53.53,0,0,1-.17.38.55.55,0,0,1-.38.17H136a1,1,0,0,1-.73-.25,1.8,1.8,0,0,1-.34-.46l-3-5.77H129.2v5.82a.62.62,0,0,1-.19.46.64.64,0,0,1-.49.2Zm4.07-10.21h3a2.54,2.54,0,0,0,1.86-.61,2.16,2.16,0,0,0,.61-1.63,2.29,2.29,0,0,0-.59-1.65,2.47,2.47,0,0,0-1.88-.63h-3Z"/><path class="cls-2" d="M149.48,66a11.2,11.2,0,0,1-4.36-.74,6.32,6.32,0,0,1-2.63-2,4.56,4.56,0,0,1-.94-2.57.5.5,0,0,1,.17-.38.53.53,0,0,1,.4-.18h3.31a1,1,0,0,1,.57.14,1.25,1.25,0,0,1,.35.34,3.33,3.33,0,0,0,.59.76,2.9,2.9,0,0,0,1,.59,4.58,4.58,0,0,0,1.53.22,4.5,4.5,0,0,0,2.29-.47,1.44,1.44,0,0,0,.78-1.29,1.24,1.24,0,0,0-.42-1,4,4,0,0,0-1.35-.67,24.61,24.61,0,0,0-2.49-.61,15.64,15.64,0,0,1-3.4-1.09,5.32,5.32,0,0,1-2.14-1.76,5.2,5.2,0,0,1,.17-5.58,6,6,0,0,1,2.54-2,9.47,9.47,0,0,1,3.86-.71,10,10,0,0,1,3.19.47,7.44,7.44,0,0,1,2.32,1.26,5.91,5.91,0,0,1,1.43,1.67,3.75,3.75,0,0,1,.52,1.72.55.55,0,0,1-.15.38.52.52,0,0,1-.41.17h-3.46a1.09,1.09,0,0,1-.5-.11,1,1,0,0,1-.37-.34,1.79,1.79,0,0,0-.83-1,3.12,3.12,0,0,0-1.74-.43,3.29,3.29,0,0,0-1.8.41,1.36,1.36,0,0,0-.64,1.24,1.31,1.31,0,0,0,.35.92,2.86,2.86,0,0,0,1.18.68,18.75,18.75,0,0,0,2.27.61,17.45,17.45,0,0,1,3.86,1.11,5,5,0,0,1,2.17,1.74,5.25,5.25,0,0,1-.33,5.74,6.58,6.58,0,0,1-2.8,2A11.25,11.25,0,0,1,149.48,66Z"/><path class="cls-2" d="M158.69,65.74a.55.55,0,0,1-.38-.17.53.53,0,0,1-.17-.38.88.88,0,0,1,0-.24l6.17-16.85a1,1,0,0,1,1-.74h3.89a1,1,0,0,1,1,.74L176.42,65a.6.6,0,0,1,.05.24.53.53,0,0,1-.17.38.58.58,0,0,1-.41.17h-3.23a.77.77,0,0,1-.59-.2,1.1,1.1,0,0,1-.25-.35l-1-2.68h-7l-1,2.68a1.22,1.22,0,0,1-.24.35.8.8,0,0,1-.63.2Zm6.17-7h4.89l-2.44-6.93Z"/><path class="cls-2" d="M35.71,90.89a5.84,5.84,0,0,1-3.09-.73,4.6,4.6,0,0,1-1.77-2,7.48,7.48,0,0,1-.65-2.89c0-.57,0-1.18,0-1.83s0-1.27,0-1.87a7.58,7.58,0,0,1,.65-2.9,4.54,4.54,0,0,1,1.77-2,5.94,5.94,0,0,1,3.09-.72,7,7,0,0,1,2.52.41,4.89,4.89,0,0,1,1.69,1.09,4.69,4.69,0,0,1,1,1.46,4.85,4.85,0,0,1,.36,1.53.31.31,0,0,1-.11.3.52.52,0,0,1-.32.11h-.42a.48.48,0,0,1-.29-.09A.55.55,0,0,1,40,80.4a3.75,3.75,0,0,0-1.48-2.54,5.09,5.09,0,0,0-2.76-.69,4.12,4.12,0,0,0-3,1.08,4.83,4.83,0,0,0-1.2,3.41c0,1.14,0,2.31,0,3.5a4.87,4.87,0,0,0,1.2,3.42,4.15,4.15,0,0,0,3,1.07A5.09,5.09,0,0,0,38.47,89,3.75,3.75,0,0,0,40,86.42a.55.55,0,0,1,.17-.34.48.48,0,0,1,.29-.09h.42a.52.52,0,0,1,.32.11.31.31,0,0,1,.11.3,4.85,4.85,0,0,1-.36,1.53,4.69,4.69,0,0,1-1,1.46,4.89,4.89,0,0,1-1.69,1.09A6.76,6.76,0,0,1,35.71,90.89Z"/><path class="cls-2" d="M49.66,90.89a6.38,6.38,0,0,1-2.93-.61,4.18,4.18,0,0,1-1.85-1.89,7.68,7.68,0,0,1-.71-3.23c0-.63,0-1.21,0-1.75s0-1.12,0-1.75a7.24,7.24,0,0,1,.75-3.21,4.47,4.47,0,0,1,1.9-1.9,6.81,6.81,0,0,1,5.68,0,4.49,4.49,0,0,1,1.91,1.9,7.11,7.11,0,0,1,.74,3.21c0,.63,0,1.21,0,1.75s0,1.12,0,1.75a7.39,7.39,0,0,1-.7,3.23,4.2,4.2,0,0,1-1.86,1.89A6.38,6.38,0,0,1,49.66,90.89Zm0-1.24a4.13,4.13,0,0,0,2.94-1.08,4.91,4.91,0,0,0,1.24-3.52c0-.62,0-1.17,0-1.64s0-1,0-1.64a6,6,0,0,0-.59-2.64,3.43,3.43,0,0,0-1.48-1.49,4.65,4.65,0,0,0-2.11-.47,4.59,4.59,0,0,0-2.09.47,3.43,3.43,0,0,0-1.48,1.49,6.12,6.12,0,0,0-.61,2.64c0,.62,0,1.17,0,1.64s0,1,0,1.64a4.87,4.87,0,0,0,1.25,3.52A4.13,4.13,0,0,0,49.66,89.65Z"/><path class="cls-2" d="M59.37,90.69a.45.45,0,0,1-.34-.13.45.45,0,0,1-.12-.33V76.61a.48.48,0,0,1,.12-.35.49.49,0,0,1,.34-.13h.43a.44.44,0,0,1,.32.11.79.79,0,0,1,.12.14l7.67,11.73V76.61a.45.45,0,0,1,.13-.35.45.45,0,0,1,.33-.13h.37a.53.53,0,0,1,.36.13.48.48,0,0,1,.12.35v13.6a.49.49,0,0,1-.12.34.46.46,0,0,1-.34.14h-.45a.42.42,0,0,1-.31-.11,1,1,0,0,0-.13-.14L60.22,78.75V90.23a.45.45,0,0,1-.12.33.48.48,0,0,1-.36.13Z"/><path class="cls-2" d="M77.18,90.69a.42.42,0,0,1-.33-.13.45.45,0,0,1-.12-.33V77.38H72.61a.45.45,0,0,1-.33-.12.45.45,0,0,1-.13-.34v-.31a.45.45,0,0,1,.13-.35.45.45,0,0,1,.33-.13h9.52a.48.48,0,0,1,.35.13.45.45,0,0,1,.13.35v.31a.45.45,0,0,1-.13.34.48.48,0,0,1-.35.12H78V90.23a.43.43,0,0,1-.47.46Z"/><path class="cls-2" d="M86,90.69a.45.45,0,0,1-.34-.13.45.45,0,0,1-.12-.33V76.61a.48.48,0,0,1,.12-.35.49.49,0,0,1,.34-.13h8.1a.51.51,0,0,1,.36.13.48.48,0,0,1,.12.35v.31a.49.49,0,0,1-.12.34.51.51,0,0,1-.36.12H86.85v5.3h6.8a.45.45,0,0,1,.35.13.48.48,0,0,1,.12.35v.31a.49.49,0,0,1-.12.34.48.48,0,0,1-.35.12h-6.8v5.51h7.42a.44.44,0,0,1,.48.48v.31a.42.42,0,0,1-.13.33.45.45,0,0,1-.35.13Z"/><path class="cls-2" d="M102.63,90.89a6.79,6.79,0,0,1-2.86-.54A4.46,4.46,0,0,1,98,89a3.25,3.25,0,0,1-.67-1.81.41.41,0,0,1,.13-.29.43.43,0,0,1,.31-.12h.42a.44.44,0,0,1,.32.12.46.46,0,0,1,.13.29,2.55,2.55,0,0,0,.52,1.16,3.2,3.2,0,0,0,1.29,1,5.37,5.37,0,0,0,2.21.39,4.82,4.82,0,0,0,3-.74,2.4,2.4,0,0,0,.93-2,1.88,1.88,0,0,0-.48-1.34,4.38,4.38,0,0,0-1.49-.91c-.67-.27-1.52-.57-2.56-.91a14.68,14.68,0,0,1-2.43-1,3.16,3.16,0,0,1-1.85-3.11,3.37,3.37,0,0,1,.56-1.9,3.9,3.9,0,0,1,1.63-1.34,6.08,6.08,0,0,1,2.61-.5,6.29,6.29,0,0,1,2.14.33,4.57,4.57,0,0,1,1.52.88,4.2,4.2,0,0,1,.92,1.19,3.23,3.23,0,0,1,.33,1.23.48.48,0,0,1-.11.29A.39.39,0,0,1,107,80h-.41a.63.63,0,0,1-.26-.08.44.44,0,0,1-.2-.34A2.39,2.39,0,0,0,105,77.85a4.3,4.3,0,0,0-2.51-.68,4.73,4.73,0,0,0-2.51.61A2.32,2.32,0,0,0,99.47,81a3.57,3.57,0,0,0,1.37.94c.62.27,1.43.56,2.41.88a18.18,18.18,0,0,1,2.58,1,3.85,3.85,0,0,1,1.51,1.21,3.14,3.14,0,0,1,.5,1.86,3.63,3.63,0,0,1-.63,2.16,4.05,4.05,0,0,1-1.8,1.35A7.46,7.46,0,0,1,102.63,90.89Z"/><path class="cls-2" d="M114.72,90.69a.43.43,0,0,1-.45-.46V77.38h-4.12a.45.45,0,0,1-.33-.12.49.49,0,0,1-.13-.34v-.31a.48.48,0,0,1,.13-.35.45.45,0,0,1,.33-.13h9.52a.53.53,0,0,1,.36.13.48.48,0,0,1,.12.35v.31a.49.49,0,0,1-.12.34.52.52,0,0,1-.36.12h-4.09V90.23a.42.42,0,0,1-.13.33.45.45,0,0,1-.35.13Z"/><path class="cls-2" d="M120.48,90.69a.37.37,0,0,1-.29-.13.4.4,0,0,1-.12-.29.7.7,0,0,1,0-.23l5.26-13.49a.67.67,0,0,1,.22-.31.59.59,0,0,1,.38-.11h.71a.61.61,0,0,1,.38.11.67.67,0,0,1,.22.31L132.54,90a.7.7,0,0,1,0,.23.4.4,0,0,1-.12.29.39.39,0,0,1-.29.13h-.42a.39.39,0,0,1-.31-.12.8.8,0,0,1-.15-.2L130,87.05h-7.36l-1.28,3.32a.46.46,0,0,1-.14.2.42.42,0,0,1-.32.12Zm2.66-4.89h6.36l-3.18-8.19Z"/><path class="cls-2" d="M135.91,90.69a.45.45,0,0,1-.34-.13.45.45,0,0,1-.12-.33V76.61a.48.48,0,0,1,.12-.35.49.49,0,0,1,.34-.13h.43a.44.44,0,0,1,.32.11l.12.14,7.67,11.73V76.61a.45.45,0,0,1,.13-.35.45.45,0,0,1,.33-.13h.37a.53.53,0,0,1,.36.13.48.48,0,0,1,.12.35v13.6a.49.49,0,0,1-.12.34.46.46,0,0,1-.34.14h-.45a.42.42,0,0,1-.31-.11,1,1,0,0,0-.13-.14l-7.65-11.69V90.23a.42.42,0,0,1-.13.33.45.45,0,0,1-.35.13Z"/><path class="cls-2" d="M150.54,90.69a.42.42,0,0,1-.33-.13.45.45,0,0,1-.13-.33V76.61a.48.48,0,0,1,.13-.35.45.45,0,0,1,.33-.13H155a7.59,7.59,0,0,1,3.45.65,3.74,3.74,0,0,1,1.78,1.9,8.34,8.34,0,0,1,.55,3.07c0,.62,0,1.17,0,1.65s0,1,0,1.65a8.94,8.94,0,0,1-.56,3.16,3.57,3.57,0,0,1-1.75,1.86,7.62,7.62,0,0,1-3.37.62Zm.85-1.25H155A6.35,6.35,0,0,0,157.6,89,2.7,2.7,0,0,0,159,87.56a6.92,6.92,0,0,0,.45-2.61c0-.42,0-.78,0-1.09v-.93c0-.3,0-.66,0-1.08a5,5,0,0,0-1.06-3.38,4.69,4.69,0,0,0-3.51-1.09h-3.48Z"/><path class="cls-2" d="M169.5,90.89a6.38,6.38,0,0,1-2.93-.61,4.13,4.13,0,0,1-1.85-1.89,7.68,7.68,0,0,1-.71-3.23c0-.63,0-1.21,0-1.75s0-1.12,0-1.75a7.24,7.24,0,0,1,.75-3.21,4.47,4.47,0,0,1,1.9-1.9,6.81,6.81,0,0,1,5.68,0,4.54,4.54,0,0,1,1.91,1.9,7.11,7.11,0,0,1,.74,3.21c0,.63,0,1.21,0,1.75s0,1.12,0,1.75a7.39,7.39,0,0,1-.7,3.23,4.25,4.25,0,0,1-1.86,1.89A6.38,6.38,0,0,1,169.5,90.89Zm0-1.24a4.13,4.13,0,0,0,2.94-1.08,4.91,4.91,0,0,0,1.24-3.52c0-.62,0-1.17,0-1.64s0-1,0-1.64a6,6,0,0,0-.59-2.64,3.43,3.43,0,0,0-1.48-1.49,4.65,4.65,0,0,0-2.11-.47,4.59,4.59,0,0,0-2.09.47,3.43,3.43,0,0,0-1.48,1.49,6.12,6.12,0,0,0-.61,2.64c0,.62,0,1.17,0,1.64s0,1,0,1.64a4.87,4.87,0,0,0,1.25,3.52A4.13,4.13,0,0,0,169.5,89.65Z"/><path class="cls-2" d="M32.1,120.23a.66.66,0,0,1-.48-.2.68.68,0,0,1-.2-.49V101a.73.73,0,0,1,.2-.52.66.66,0,0,1,.48-.2h2.19a.79.79,0,0,1,.58.19,1.71,1.71,0,0,1,.25.27l8.19,12.74V101a.77.77,0,0,1,.18-.52.67.67,0,0,1,.5-.2h2.39a.69.69,0,0,1,.71.72v18.49a.68.68,0,0,1-.68.71H44.19a.74.74,0,0,1-.57-.2,2.16,2.16,0,0,0-.25-.26L35.2,107.31v12.23a.64.64,0,0,1-.2.49.69.69,0,0,1-.51.2Z"/><path class="cls-2" d="M62,120.51a10.18,10.18,0,0,1-4.3-.84,6.08,6.08,0,0,1-2.81-2.59,8.9,8.9,0,0,1-1-4.48V101a.73.73,0,0,1,.2-.52.66.66,0,0,1,.48-.2h2.59a.65.65,0,0,1,.5.2.77.77,0,0,1,.18.52V112.6A4.75,4.75,0,0,0,59,116.06,4.09,4.09,0,0,0,62,117.18a4,4,0,0,0,3-1.12,4.79,4.79,0,0,0,1.09-3.46V101a.73.73,0,0,1,.2-.52.69.69,0,0,1,.51-.2h2.56a.65.65,0,0,1,.5.2.77.77,0,0,1,.19.52V112.6a9,9,0,0,1-1,4.48,6,6,0,0,1-2.78,2.59A10.17,10.17,0,0,1,62,120.51Z"/><path class="cls-2" d="M77.62,120.23a.68.68,0,0,1-.69-.69V101a.73.73,0,0,1,.2-.52.68.68,0,0,1,.49-.2H90.13a.69.69,0,0,1,.71.72v1.87a.66.66,0,0,1-.2.49.69.69,0,0,1-.51.2H80.77v5h8.74a.7.7,0,0,1,.51.19.65.65,0,0,1,.2.49v1.77a.67.67,0,0,1-.2.5.74.74,0,0,1-.51.18H80.77V117h9.59a.66.66,0,0,1,.51.2.69.69,0,0,1,.2.51v1.87a.68.68,0,0,1-.2.49.69.69,0,0,1-.51.2Z"/><path class="cls-2" d="M104.1,120.51a11,11,0,0,1-4.42-.78,6.43,6.43,0,0,1-2.71-2A4.83,4.83,0,0,1,96,115a.57.57,0,0,1,.17-.42.58.58,0,0,1,.43-.18h2.53a.89.89,0,0,1,.56.16,1.7,1.7,0,0,1,.32.38,2.81,2.81,0,0,0,.66,1.07,3.62,3.62,0,0,0,1.32.87,7,7,0,0,0,5.18-.34,2.14,2.14,0,0,0,1-1.85,1.7,1.7,0,0,0-.54-1.32,4.84,4.84,0,0,0-1.67-.91,27.25,27.25,0,0,0-3-.87,16.77,16.77,0,0,1-3.57-1.24,5.33,5.33,0,0,1-2.16-1.83,5.49,5.49,0,0,1,.17-5.75,6,6,0,0,1,2.56-2,9.77,9.77,0,0,1,4-.74,9.94,9.94,0,0,1,3.27.5,7.21,7.21,0,0,1,2.36,1.31,6.53,6.53,0,0,1,1.44,1.73,4.13,4.13,0,0,1,.52,1.81.59.59,0,0,1-.16.41.55.55,0,0,1-.44.19h-2.64a1,1,0,0,1-.46-.12.86.86,0,0,1-.37-.42,2.34,2.34,0,0,0-1.11-1.51,4.23,4.23,0,0,0-2.41-.63,4.74,4.74,0,0,0-2.48.57A2.12,2.12,0,0,0,101,107a3.87,3.87,0,0,0,1.51.92c.69.27,1.61.55,2.74.86a19.56,19.56,0,0,1,4,1.25,5.2,5.2,0,0,1,2.25,1.8,5.05,5.05,0,0,1,.71,2.78,5.14,5.14,0,0,1-1,3.2,6.41,6.41,0,0,1-2.83,2A11.73,11.73,0,0,1,104.1,120.51Z"/><path class="cls-2" d="M122.84,120.23a.66.66,0,0,1-.48-.2.68.68,0,0,1-.2-.49V103.81H116.9a.68.68,0,0,1-.68-.68V101a.69.69,0,0,1,.2-.52.66.66,0,0,1,.48-.2h14.51a.69.69,0,0,1,.51.2.73.73,0,0,1,.2.52v2.1a.68.68,0,0,1-.71.68h-5.24v15.73a.64.64,0,0,1-.2.49.69.69,0,0,1-.51.2Z"/><path class="cls-2" d="M138.23,120.23a.66.66,0,0,1-.48-.2.68.68,0,0,1-.2-.49V101a.73.73,0,0,1,.2-.52.66.66,0,0,1,.48-.2h7.37a8.44,8.44,0,0,1,5.43,1.6,5.58,5.58,0,0,1,2,4.63,5.7,5.7,0,0,1-1,3.5,5.78,5.78,0,0,1-2.78,2l4.16,7.26a.79.79,0,0,1,.08.31.58.58,0,0,1-.18.43.62.62,0,0,1-.41.17h-2.59a1,1,0,0,1-.74-.26,2.23,2.23,0,0,1-.4-.51l-3.67-6.74h-4v6.82a.71.71,0,0,1-.19.49.65.65,0,0,1-.5.2Zm3.28-10.73h4a3.7,3.7,0,0,0,2.58-.78,2.84,2.84,0,0,0,.86-2.2,3,3,0,0,0-.84-2.24,3.63,3.63,0,0,0-2.6-.81h-4Z"/><path class="cls-2" d="M158,120.23a.6.6,0,0,1-.41-.17.58.58,0,0,1-.18-.43.66.66,0,0,1,.05-.26L164.35,101a1,1,0,0,1,.32-.5,1,1,0,0,1,.67-.22h3.1a.94.94,0,0,1,.66.22,1.43,1.43,0,0,1,.34.5l6.86,18.34c0,.1,0,.18,0,.26a.57.57,0,0,1-.17.43.54.54,0,0,1-.4.17h-2.47a.75.75,0,0,1-.58-.19.79.79,0,0,1-.24-.35l-1.34-3.47h-8.45l-1.34,3.47a1,1,0,0,1-.24.35.77.77,0,0,1-.58.19Zm5.63-7.28h6.46l-3.24-8.79Z"/><path class="cls-2" d="M39.15,157.43a1,1,0,0,1-.75-.31,1,1,0,0,1-.3-.75V136.62h-7a1,1,0,0,1-.75-.3,1.06,1.06,0,0,1-.31-.75v-5.43a1.06,1.06,0,0,1,.31-.75,1,1,0,0,1,.75-.3H53.89a1,1,0,0,1,1,1v5.43a1,1,0,0,1-1,1.05h-7v19.75a1,1,0,0,1-.3.75,1,1,0,0,1-.75.31Z"/><path class="cls-2" d="M60.49,157.43a1,1,0,0,1-.73-.31,1,1,0,0,1-.33-.75V130.14a1,1,0,0,1,.33-.75,1,1,0,0,1,.73-.3H72q5.51,0,8.64,2.51a8.44,8.44,0,0,1,3.14,7,8.65,8.65,0,0,1-1.29,4.82,9.35,9.35,0,0,1-3.4,3.12l5.26,9.55a1,1,0,0,1,.12.45.88.88,0,0,1-.24.62.79.79,0,0,1-.61.27H76.8a1.65,1.65,0,0,1-1.18-.39,1.9,1.9,0,0,1-.52-.71l-4-8.34H68.14v8.38a1.06,1.06,0,0,1-1.06,1.06Zm7.65-16.12H72a2.67,2.67,0,0,0,2.11-.78,2.88,2.88,0,0,0,.68-2,3.24,3.24,0,0,0-.66-2.06,2.55,2.55,0,0,0-2.13-.85H68.14Z"/><path class="cls-2" d="M90.32,157.43a1,1,0,0,1-.73-.31,1,1,0,0,1-.32-.75V130.14a1,1,0,0,1,.32-.75,1.06,1.06,0,0,1,.73-.3H97.2a1,1,0,0,1,.75.3,1.05,1.05,0,0,1,.3.75v26.23a1,1,0,0,1-.3.75,1,1,0,0,1-.75.31Z"/><path class="cls-2" d="M112.5,157.43a1.65,1.65,0,0,1-1.19-.41,1.8,1.8,0,0,1-.55-.85l-8-25.91a1,1,0,0,1,0-.28.85.85,0,0,1,.26-.63.88.88,0,0,1,.63-.26h6.27a1.58,1.58,0,0,1,1.14.4,2.06,2.06,0,0,1,.52.81l4.78,16.89,4.77-16.89a2.09,2.09,0,0,1,.53-.81,1.58,1.58,0,0,1,1.14-.4h6.27a.83.83,0,0,1,.61.26.92.92,0,0,1,.24.63,1,1,0,0,1,0,.28l-7.93,25.91a2,2,0,0,1-.55.85,1.68,1.68,0,0,1-1.2.41Z"/><path class="cls-2" d="M135.5,157.43a1,1,0,0,1-.73-.31,1,1,0,0,1-.33-.75V130.14a1,1,0,0,1,.33-.75,1,1,0,0,1,.73-.3h6.88a1,1,0,0,1,1.05,1v26.23a1,1,0,0,1-1.05,1.06Z"/><path class="cls-2" d="M148.21,157.43a.78.78,0,0,1-.61-.27.88.88,0,0,1-.24-.62.85.85,0,0,1,0-.29l9.23-25.91a2.28,2.28,0,0,1,.56-.85,1.58,1.58,0,0,1,1.14-.4h7.41a1.62,1.62,0,0,1,1.17.4,2.07,2.07,0,0,1,.53.85l9.27,25.91a1.19,1.19,0,0,1,0,.29.92.92,0,0,1-.89.89h-6.24a1.36,1.36,0,0,1-1-.33,2.17,2.17,0,0,1-.45-.6l-1.25-3.4h-9.76l-1.25,3.4a2.06,2.06,0,0,1-.43.6,1.34,1.34,0,0,1-1,.33ZM159,146.25h6l-3-9.1Z"/></g></g></svg>